<?xml version="1.0" encoding="UTF-8" standalone="no"?>
<!-- Created with Inkscape (http://www.inkscape.org/) -->

<svg
   xmlns:dc="http://purl.org/dc/elements/1.1/"
   xmlns:cc="http://creativecommons.org/ns#"
   xmlns:rdf="http://www.w3.org/1999/02/22-rdf-syntax-ns#"
   xmlns:svg="http://www.w3.org/2000/svg"
   xmlns="http://www.w3.org/2000/svg"
   xmlns:sodipodi="http://sodipodi.sourceforge.net/DTD/sodipodi-0.dtd"
   xmlns:inkscape="http://www.inkscape.org/namespaces/inkscape"
   width="50mm"
   height="50mm"
   viewBox="0 0 177.16535 177.16535"
   id="svg5337"
   version="1.1"
   inkscape:version="0.91 r13725"
   sodipodi:docname="Icone_human ecology.svg">
  <defs
     id="defs5339" />
  <sodipodi:namedview
     id="base"
     pagecolor="#ffffff"
     bordercolor="#666666"
     borderopacity="1.0"
     inkscape:pageopacity="0.0"
     inkscape:pageshadow="2"
     inkscape:zoom="2.8"
     inkscape:cx="119.77171"
     inkscape:cy="85.394942"
     inkscape:document-units="px"
     inkscape:current-layer="g12512"
     showgrid="false"
     inkscape:window-width="1366"
     inkscape:window-height="745"
     inkscape:window-x="-8"
     inkscape:window-y="-8"
     inkscape:window-maximized="1" />
  <metadata
     id="metadata5342">
    <rdf:RDF>
      <cc:Work
         rdf:about="">
        <dc:format>image/svg+xml</dc:format>
        <dc:type
           rdf:resource="http://purl.org/dc/dcmitype/StillImage" />
        <dc:title></dc:title>
      </cc:Work>
    </rdf:RDF>
  </metadata>
  <g
     inkscape:label="Calque 1"
     inkscape:groupmode="layer"
     id="layer1"
     transform="translate(0,-875.19685)">
    <g
       id="g12466"
       transform="matrix(1.5213953,0,0,1.5213953,418.66971,-2009.2082)">
      <g
         id="g12612"
         transform="translate(198.74452,-0.08084291)">
        <g
           transform="translate(-5.9215698,0)"
           id="g12490">
          <g
             id="g12512"
             transform="translate(180.53839,8.4795538)">
            <ellipse
               id="path3013-7-6-4-0-5-4"
               style="fill:#d8e2db;fill-opacity:1;fill-rule:nonzero;stroke:none;stroke-opacity:1"
               cx="-590.5788"
               cy="1948.4927"
               rx="53.318573"
               ry="52.808613" />
            <path
               style="fill:#b4c7b9;fill-opacity:1;fill-rule:evenodd;stroke:none;stroke-width:0.65729129px;stroke-linecap:butt;stroke-linejoin:miter;stroke-opacity:1"
               d="M 151.58789 94.166016 C 151.58789 94.166016 120.15569 111.00391 112.30273 128.09375 C 104.44978 145.18359 105.82593 159.57059 111.94531 165.95117 C 114.07427 166.69182 116.35154 167.10622 118.72656 167.17969 A 81.118636 80.342785 0 0 0 154.76758 138.66016 C 159.50274 120.32895 151.58789 94.166016 151.58789 94.166016 z "
               transform="matrix(0.65729129,0,0,0.65729129,-648.54933,1887.4958)"
               id="path4436" />
            <path
               style="fill:#b4c7b9;fill-opacity:1"
               d="M 95.839844 24.345703 L 95.839844 24.351562 C 84.765986 24.181623 77.342465 29.037207 73.033203 33.181641 C 71.496 34.234903 70.027483 35.395597 68.640625 36.658203 C 69.236358 34.511514 70.62985 31.767501 71.669922 29.835938 C 72.400937 28.568919 71.851592 28.025968 70.572266 28.75 C 52.113555 38.52451 54.125 65.132812 54.125 65.132812 C 54.125 66.500243 54.196057 67.818343 54.339844 69.179688 C 54.33852 69.322699 54.330078 69.46261 54.330078 69.605469 L 54.384766 69.605469 C 54.462661 70.270623 54.554764 70.94568 54.673828 71.650391 C 54.967229 73.387064 55.493712 75.964779 56.212891 77.630859 A 5.3000217 9.9556256 0 0 0 55.769531 81.607422 A 5.3000217 9.9556256 0 0 0 61.070312 91.5625 A 5.3000217 9.9556256 0 0 0 61.181641 91.546875 C 62.365682 107.35706 73.80932 120.14851 88.605469 122.74219 L 88.605469 131.14648 C 88.605469 131.14648 89.407284 131.19116 89.820312 131.21094 C 89.80662 131.21094 89.794334 131.21135 89.78125 131.22656 C 89.547914 131.21135 88.605469 131.15625 88.605469 131.15625 C 88.605469 131.15625 87.243154 131.52747 84.847656 132.56445 C 71.861724 136.93938 61.629917 149.14388 58.027344 164.61328 A 81.118639 80.342787 0 0 0 91.072266 173.04102 A 81.118636 80.342785 0 0 0 131.74219 160.56641 C 127.27598 146.59843 117.2546 135.86788 104.89453 132.1875 C 103.8668 131.85112 102.82291 131.56427 101.76367 131.32617 L 101.76367 130.02734 L 101.83398 122.32031 C 111.81043 119.92305 120.02433 112.95715 124.33008 103.64453 C 124.3316 103.64453 124.33289 103.62891 124.33594 103.62891 C 124.54749 103.17081 124.75098 102.70943 124.94336 102.24023 C 125.1 101.86186 125.24504 101.47701 125.38867 101.0918 C 125.42458 100.99443 125.46501 100.9001 125.5 100.80273 C 126.5593 97.882568 127.23449 94.774997 127.48047 91.544922 A 5.3000217 9.9556256 0 0 0 127.59375 91.560547 A 5.3000217 9.9556256 0 0 0 132.89453 81.605469 A 5.3000217 9.9556256 0 0 0 132.51953 77.939453 C 133.03332 75.959357 133.51317 73.81034 133.99023 71.648438 C 134.10556 70.962745 134.19591 70.267745 134.27344 69.568359 L 134.39648 69.568359 C 134.39192 69.271687 134.37167 68.978897 134.36133 68.683594 C 134.66062 65.227744 134.47621 61.700546 133.625 58.609375 C 132.62202 55.562933 131.29854 52.664404 129.69531 49.953125 C 127.50438 45.480983 124.62453 41.446684 121.20312 38.039062 C 122.58825 38.296483 123.96647 38.707735 125.03516 39.060547 C 126.49722 39.784579 126.8622 39.423863 125.76562 38.337891 C 121.29593 34.256747 116.08416 32.006808 111.34375 30.775391 C 108.36814 29.222502 105.19016 28.062104 101.86914 27.347656 C 102.87369 27.040334 103.8747 26.770376 104.75 26.570312 C 106.21206 26.208373 106.21206 25.846315 104.75 25.484375 C 101.55171 24.737674 98.583376 24.387694 95.839844 24.345703 z "
               transform="matrix(0.65729129,0,0,0.65729129,-648.54933,1887.4958)"
               id="path4211" />
            <path
               inkscape:connector-curvature="0"
               id="path58-8-8-6-9-8-1"
               d="m -589.92904,1973.4093 c -9.00118,0 -16.67581,6.3554 -20.04008,15.513 a 49.523136,49.049476 0 0 0 19.48,3.9662 49.523136,49.049476 0 0 0 20.40752,-4.4255 c -3.45856,-8.8709 -11.01435,-15.0537 -19.84744,-15.0537 z"
               style="fill:#f08c4a;fill-opacity:1" />
            <path
               sodipodi:nodetypes="czczc"
               inkscape:connector-curvature="0"
               id="path4427"
               d="m -624.60515,1949.7185 c 0,0 20.66048,11.068 25.82216,22.301 5.16168,11.233 4.25697,20.6893 0.23475,24.8832 -7.31063,2.5433 -17.25806,-0.7081 -25.35267,-11.7374 -8.09461,-11.0293 -0.70424,-35.4468 -0.70424,-35.4468 z"
               style="fill:#b4c7b9;fill-opacity:1;fill-rule:evenodd;stroke:none;stroke-width:0.65729129px;stroke-linecap:butt;stroke-linejoin:miter;stroke-opacity:1" />
            <path
               inkscape:connector-curvature="0"
               style="fill:#f0f0f0;fill-opacity:1"
               d="m -589.76145,1973.4763 c -11.71854,0 -21.60877,9.4104 -24.591,22.216 a 53.318575,52.808614 0 0 0 23.7729,5.6092 53.318575,52.808614 0 0 0 25.23435,-6.3415 c -3.18286,-12.4309 -12.92189,-21.4837 -24.41625,-21.4837 z"
               id="path190-2-8-5-8-1" />
            <path
               inkscape:connector-curvature="0"
               style="opacity:0.1;stroke:none"
               d="m -590.4982,1972.8569 0,28.5175 c 8.70969,-0.1426 17.50611,-2.3156 25.17072,-6.4152 -3.19935,-12.7533 -13.40597,-22.1023 -25.17072,-22.1023 z"
               id="path192-0-5-9-3-6"
               sodipodi:nodetypes="cccc" />
            <path
               sodipodi:nodetypes="cccccccccc"
               inkscape:connector-curvature="0"
               d="m -581.4003,1975.4322 c -2.64278,-1.3087 -12.85308,-1.7308 -12.85308,-1.7308 0,0 -1.56205,0.4221 -4.20484,1.7308 0.96102,3.8073 4.32455,6.6628 8.52897,6.6628 4.08427,-0.119 7.56794,-2.8555 8.52895,-6.6628 z m -12.8535,-15.8239 8.76923,0 -0.13488,14.8503 c -3.2962,-0.5153 -8.63435,-0.7568 -8.63435,-0.7568 z"
               style="fill:#f7c1a1"
               id="path62-2-8-2-7-0-2" />
            <path
               id="path64-0-6-9-1-5-6"
               d="m -585.60472,1973.8855 0,-14.2772 -4.32453,0 0,22.3677 c 4.08427,0 7.56794,-2.8555 8.52895,-6.6627 -1.32139,-0.5949 -2.7629,-1.0708 -4.20442,-1.4278 z"
               style="fill:#f5b090"
               inkscape:connector-curvature="0" />
            <path
               id="path70-0-3-6-1-9-3-4"
               d="m -590.36941,1912.1034 c -12.13274,0 -21.86296,9.9941 -21.98308,22.4867 l 0,11.3028 c 0,12.4926 9.73021,22.6057 21.74282,22.6057 12.13275,0 21.86296,-9.9941 21.98308,-22.4867 l 0,-11.3029 c 0.12013,-12.4926 -9.73022,-22.6056 -21.74282,-22.6056 z"
               style="fill:#f7c1a1"
               inkscape:connector-curvature="0" />
            <path
               id="path72-5-9-3-9-4-4-5"
               d="m -590.48954,1912.1034 c 9.6101,0 17.53842,10.113 17.53842,22.4867 l 0,11.3028 c 0,12.4926 -7.8082,22.4867 -17.53842,22.4867 12.13273,0 21.86295,-10.1131 21.86295,-22.4867 l 0,-11.3028 c 0,-12.3737 -9.73022,-22.4867 -21.86295,-22.4867 z"
               style="fill:#f5b090"
               inkscape:connector-curvature="0" />
            <path
               sodipodi:nodetypes="cccccccczcccscccccccc"
               inkscape:connector-curvature="0"
               id="path74-9-7-3-8-4-4-0"
               d="m -569.82785,1912.6983 c -7.68807,-7.0197 -18.73966,-5.8299 -18.73966,-5.8299 1.20125,-0.9518 3.36352,-1.5467 4.92517,-1.9037 0.961,-0.2379 0.961,-0.4759 0,-0.7138 -16.81768,-3.9263 -23.90512,8.8043 -23.90512,8.8043 -0.24024,-1.3088 1.20127,-4.1642 2.16228,-5.9489 0.48049,-0.8328 0.12014,-1.1897 -0.72075,-0.7138 -12.13275,6.4247 -10.81136,23.9144 -10.81136,23.9144 0,1.4277 0.10391,2.765 0.36038,4.2832 0.25647,1.5181 0.78545,4.0135 1.52035,4.7776 l 2.68407,-4.7776 c 0,0 5.95856,-13.7127 14.24725,-16.8061 2.59531,1.8914 7.00373,3.3833 8.42291,4.5067 2.53368,2.0055 5.43934,-0.6691 7.72174,-2.8107 8.28871,3.0934 13.334,15.1101 13.334,15.1101 l 2.62777,6.2463 c 0.5914,-1.756 1.08269,-4.0078 1.57665,-6.2463 0.4805,-2.8555 0.4805,-5.9489 -0.24024,-8.5664 -1.80191,-5.4729 -5.16544,-10.232 -9.6101,-13.6824 1.32139,0 2.88302,0.4759 3.96416,0.8329 0.96101,0.4759 1.20127,0.2379 0.4805,-0.4759 z"
               style="fill:#559e33;fill-opacity:1;stroke:none;stroke-width:0.1;stroke-miterlimit:4;stroke-dasharray:none;stroke-opacity:1" />
            <ellipse
               id="ellipse66-0-0-8-4-9-2-3"
               ry="6.543746"
               rx="3.4836581"
               cy="1941.1338"
               cx="-568.62659"
               style="fill:#f5b090;fill-opacity:1" />
            <ellipse
               id="ellipse68-1-0-7-2-5-2-8"
               ry="6.543746"
               rx="3.4836581"
               cy="1941.1338"
               cx="-612.35254"
               style="fill:#f7c1a1" />
            <path
               sodipodi:nodetypes="scccccs"
               id="path54-9-7-4-5-8-0"
               d="m -590.60137,1904.9324 c -14.44753,0 -26.18133,12.903 -26.18133,28.3151 l 5.12219,-0.2702 c 0,0 4.65261,-12.1276 15.42705,-13.1382 0.72288,-2.0406 16.11215,11.9062 26.93612,13.1382 l 5.14234,0.2494 c -0.24488,-15.4121 -11.99883,-28.2943 -26.44637,-28.2943 z"
               style="fill:#559e33;fill-opacity:1"
               inkscape:connector-curvature="0" />
            <path
               style="fill:#4c8d2e;fill-opacity:1;fill-rule:evenodd;stroke:none;stroke-width:0.65729129px;stroke-linecap:butt;stroke-linejoin:miter;stroke-opacity:1"
               d="m -626.71787,1950.1881 c 0,0 -7.38982,24.4169 0.70479,35.4462 8.09461,11.0293 18.0413,14.2808 25.35193,11.7375 4.02222,-4.1939 4.92675,-13.6503 -0.23493,-24.8833 -5.16168,-11.233 -25.82179,-22.3004 -25.82179,-22.3004 z m 4.69476,11.5026 20.41325,34.3434 c -8.90137,-10.5146 -15.41456,-20.9018 -20.41325,-34.3434 z"
               id="path4425"
               inkscape:connector-curvature="0" />
            <path
               id="path4438"
               d="m -552.00253,1948.7511 c 0,0 7.38982,24.4169 -0.70479,35.4462 -8.09461,11.0293 -18.0413,14.2809 -25.35193,11.7376 -4.02222,-4.1939 -4.92675,-13.6504 0.23493,-24.8834 5.16168,-11.233 25.82179,-22.3004 25.82179,-22.3004 z m -4.69475,11.5026 -20.41326,34.3435 c 8.90137,-10.5146 15.41457,-20.9019 20.41326,-34.3435 z"
               style="fill:#4c8d2e;fill-opacity:1;fill-rule:evenodd;stroke:none;stroke-width:0.65729129px;stroke-linecap:butt;stroke-linejoin:miter;stroke-opacity:1"
               inkscape:connector-curvature="0" />
          </g>
        </g>
      </g>
    </g>
  </g>
</svg>
